# xmcd
# Copyright (C) 1995-1998 Ti Kan
#
# Track frame offsets:
#       150
#       20700
#       37950
#       57300
#       69300
#       86025
#       102622
#       111160
#       125437
#       140047
#       157425
#       168487
#
# Disc length: 2622 seconds
#
# Revision: 0
# Processed by: cddbd v1.4b42PL1 Copyright (c) Steve Scherf et al.
# Submitted via: CD-Transfer v1.0
#
DISCID=b20a3c0c
DTITLE=The Bellybuttons - Sell Me A Crocodile
DYEAR=2000
DGENRE=
TTITLE0=You Make Me Want You
TTITLE1=So Sorry
TTITLE2=Swine
TTITLE3=Let Him Have His Way
TTITLE4=Never Be The Same Again
TTITLE5=Why I'm Gone
TTITLE6=Professional Virgin
TTITLE7=Line My Way
TTITLE8=Luna World
TTITLE9=Judy Says
TTITLE10=Your Friend
TTITLE11=Crucified
EXTD=
EXTT0=
EXTT1=
EXTT2=
EXTT3=
EXTT4=
EXTT5=
EXTT6=
EXTT7=
EXTT8=
EXTT9=
EXTT10=
EXTT11=
PLAYORDER=
